<svg width="273" height="27" viewBox="0 0 273 27" fill="none" xmlns="http://www.w3.org/2000/svg">
<path d="M0.212 26L10.196 3.6H15.316L25.332 26H19.892L11.7 6.224H13.748L5.524 26H0.212ZM5.204 21.2L6.58 17.264H18.1L19.508 21.2H5.204ZM34.5398 26.256C32.9184 26.256 31.4571 25.8933 30.1558 25.168C28.8544 24.4213 27.8198 23.3867 27.0518 22.064C26.3051 20.7413 25.9318 19.184 25.9318 17.392C25.9318 15.5787 26.3051 14.0107 27.0518 12.688C27.8198 11.3653 28.8544 10.3413 30.1558 9.616C31.4571 8.89067 32.9184 8.528 34.5398 8.528C35.9904 8.528 37.2598 8.848 38.3478 9.488C39.4358 10.128 40.2784 11.0987 40.8758 12.4C41.4731 13.7013 41.7718 15.3653 41.7718 17.392C41.7718 19.3973 41.4838 21.0613 40.9078 22.384C40.3318 23.6853 39.4998 24.656 38.4118 25.296C37.3451 25.936 36.0544 26.256 34.5398 26.256ZM35.4038 22.16C36.2144 22.16 36.9504 21.968 37.6118 21.584C38.2731 21.2 38.7958 20.656 39.1798 19.952C39.5851 19.2267 39.7878 18.3733 39.7878 17.392C39.7878 16.3893 39.5851 15.536 39.1798 14.832C38.7958 14.128 38.2731 13.584 37.6118 13.2C36.9504 12.816 36.2144 12.624 35.4038 12.624C34.5718 12.624 33.8251 12.816 33.1638 13.2C32.5024 13.584 31.9691 14.128 31.5638 14.832C31.1798 15.536 30.9878 16.3893 30.9878 17.392C30.9878 18.3733 31.1798 19.2267 31.5638 19.952C31.9691 20.656 32.5024 21.2 33.1638 21.584C33.8251 21.968 34.5718 22.16 35.4038 22.16ZM39.9158 26V22.48L40.0118 17.36L39.6918 12.272V2.256H44.6838V26H39.9158ZM71.352 8.528C72.7173 8.528 73.9227 8.80533 74.968 9.36C76.0347 9.89333 76.8667 10.7253 77.464 11.856C78.0827 12.9653 78.392 14.3947 78.392 16.144V26H73.4V16.912C73.4 15.5253 73.112 14.5013 72.536 13.84C71.96 13.1787 71.1493 12.848 70.104 12.848C69.3787 12.848 68.728 13.0187 68.152 13.36C67.576 13.68 67.128 14.1707 66.808 14.832C66.488 15.4933 66.328 16.336 66.328 17.36V26H61.336V16.912C61.336 15.5253 61.048 14.5013 60.472 13.84C59.9173 13.1787 59.1173 12.848 58.072 12.848C57.3467 12.848 56.696 13.0187 56.12 13.36C55.544 13.68 55.096 14.1707 54.776 14.832C54.456 15.4933 54.296 16.336 54.296 17.36V26H49.304V8.784H54.072V13.488L53.176 12.112C53.7733 10.9387 54.616 10.0533 55.704 9.456C56.8133 8.83733 58.072 8.528 59.48 8.528C61.0587 8.528 62.4347 8.93333 63.608 9.744C64.8027 10.5333 65.592 11.7493 65.976 13.392L64.216 12.912C64.792 11.568 65.7093 10.5013 66.968 9.712C68.248 8.92267 69.7093 8.528 71.352 8.528ZM82.8665 26V8.784H87.8585V26H82.8665ZM85.3625 6.384C84.4452 6.384 83.6985 6.11733 83.1225 5.584C82.5465 5.05067 82.2585 4.38933 82.2585 3.6C82.2585 2.81067 82.5465 2.14933 83.1225 1.616C83.6985 1.08267 84.4452 0.815998 85.3625 0.815998C86.2798 0.815998 87.0265 1.072 87.6025 1.584C88.1785 2.07467 88.4665 2.71467 88.4665 3.504C88.4665 4.336 88.1785 5.02933 87.6025 5.584C87.0478 6.11733 86.3012 6.384 85.3625 6.384ZM102.956 8.528C104.321 8.528 105.537 8.80533 106.604 9.36C107.692 9.89333 108.545 10.7253 109.164 11.856C109.782 12.9653 110.092 14.3947 110.092 16.144V26H105.1V16.912C105.1 15.5253 104.79 14.5013 104.172 13.84C103.574 13.1787 102.721 12.848 101.612 12.848C100.822 12.848 100.108 13.0187 99.4675 13.36C98.8488 13.68 98.3582 14.1813 97.9955 14.864C97.6542 15.5467 97.4835 16.4213 97.4835 17.488V26H92.4915V8.784H97.2595V13.552L96.3635 12.112C96.9822 10.96 97.8675 10.0747 99.0195 9.456C100.172 8.83733 101.484 8.528 102.956 8.528ZM131.391 26.384C129.599 26.384 127.882 26.1493 126.239 25.68C124.596 25.1893 123.274 24.56 122.271 23.792L124.031 19.888C124.991 20.5707 126.122 21.136 127.423 21.584C128.746 22.0107 130.079 22.224 131.423 22.224C132.447 22.224 133.268 22.128 133.887 21.936C134.527 21.7227 134.996 21.4347 135.295 21.072C135.594 20.7093 135.743 20.2933 135.743 19.824C135.743 19.2267 135.508 18.7573 135.039 18.416C134.57 18.0533 133.951 17.7653 133.183 17.552C132.415 17.3173 131.562 17.104 130.623 16.912C129.706 16.6987 128.778 16.4427 127.839 16.144C126.922 15.8453 126.079 15.4613 125.311 14.992C124.543 14.5227 123.914 13.904 123.423 13.136C122.954 12.368 122.719 11.3867 122.719 10.192C122.719 8.912 123.06 7.74933 123.743 6.704C124.447 5.63733 125.492 4.79467 126.879 4.176C128.287 3.536 130.047 3.216 132.159 3.216C133.567 3.216 134.954 3.38667 136.319 3.728C137.684 4.048 138.89 4.53867 139.935 5.2L138.335 9.136C137.29 8.53867 136.244 8.10133 135.199 7.824C134.154 7.52533 133.13 7.376 132.127 7.376C131.124 7.376 130.303 7.49333 129.663 7.728C129.023 7.96267 128.564 8.272 128.287 8.656C128.01 9.01867 127.871 9.44533 127.871 9.936C127.871 10.512 128.106 10.9813 128.575 11.344C129.044 11.6853 129.663 11.9627 130.431 12.176C131.199 12.3893 132.042 12.6027 132.959 12.816C133.898 13.0293 134.826 13.2747 135.743 13.552C136.682 13.8293 137.535 14.2027 138.303 14.672C139.071 15.1413 139.69 15.76 140.159 16.528C140.65 17.296 140.895 18.2667 140.895 19.44C140.895 20.6987 140.543 21.8507 139.839 22.896C139.135 23.9413 138.079 24.784 136.671 25.424C135.284 26.064 133.524 26.384 131.391 26.384ZM151.125 26.256C149.099 26.256 147.52 25.744 146.389 24.72C145.259 23.6747 144.693 22.128 144.693 20.08V4.976H149.685V20.016C149.685 20.7413 149.877 21.3067 150.261 21.712C150.645 22.096 151.168 22.288 151.829 22.288C152.619 22.288 153.291 22.0747 153.845 21.648L155.189 25.168C154.677 25.5307 154.059 25.808 153.333 26C152.629 26.1707 151.893 26.256 151.125 26.256ZM142.037 13.008V9.168H153.973V13.008H142.037ZM165.256 26.256C163.826 26.256 162.546 25.9787 161.416 25.424C160.306 24.8693 159.442 24.0267 158.824 22.896C158.205 21.744 157.896 20.2827 157.896 18.512V8.784H162.888V17.776C162.888 19.2053 163.186 20.2613 163.784 20.944C164.402 21.6053 165.266 21.936 166.376 21.936C167.144 21.936 167.826 21.776 168.424 21.456C169.021 21.1147 169.49 20.6027 169.832 19.92C170.173 19.216 170.344 18.3413 170.344 17.296V8.784H175.336V26H170.6V21.264L171.464 22.64C170.888 23.8347 170.034 24.7413 168.904 25.36C167.794 25.9573 166.578 26.256 165.256 26.256ZM187.352 26.256C185.731 26.256 184.27 25.8933 182.968 25.168C181.667 24.4213 180.632 23.3867 179.864 22.064C179.118 20.7413 178.744 19.184 178.744 17.392C178.744 15.5787 179.118 14.0107 179.864 12.688C180.632 11.3653 181.667 10.3413 182.968 9.616C184.27 8.89067 185.731 8.528 187.352 8.528C188.803 8.528 190.072 8.848 191.16 9.488C192.248 10.128 193.091 11.0987 193.688 12.4C194.286 13.7013 194.584 15.3653 194.584 17.392C194.584 19.3973 194.296 21.0613 193.72 22.384C193.144 23.6853 192.312 24.656 191.224 25.296C190.158 25.936 188.867 26.256 187.352 26.256ZM188.216 22.16C189.027 22.16 189.763 21.968 190.424 21.584C191.086 21.2 191.608 20.656 191.992 19.952C192.398 19.2267 192.6 18.3733 192.6 17.392C192.6 16.3893 192.398 15.536 191.992 14.832C191.608 14.128 191.086 13.584 190.424 13.2C189.763 12.816 189.027 12.624 188.216 12.624C187.384 12.624 186.638 12.816 185.976 13.2C185.315 13.584 184.782 14.128 184.376 14.832C183.992 15.536 183.8 16.3893 183.8 17.392C183.8 18.3733 183.992 19.2267 184.376 19.952C184.782 20.656 185.315 21.2 185.976 21.584C186.638 21.968 187.384 22.16 188.216 22.16ZM192.728 26V22.48L192.824 17.36L192.504 12.272V2.256H197.496V26H192.728ZM210.661 26.256C208.698 26.256 206.97 25.872 205.477 25.104C204.005 24.336 202.863 23.2907 202.053 21.968C201.242 20.624 200.837 19.0987 200.837 17.392C200.837 15.664 201.231 14.1387 202.021 12.816C202.831 11.472 203.93 10.4267 205.317 9.68C206.703 8.912 208.271 8.528 210.021 8.528C211.706 8.528 213.221 8.89067 214.565 9.616C215.93 10.32 217.007 11.344 217.797 12.688C218.586 14.0107 218.981 15.6 218.981 17.456C218.981 17.648 218.97 17.872 218.949 18.128C218.927 18.3627 218.906 18.5867 218.885 18.8H204.901V15.888H216.26L214.341 16.752C214.341 15.856 214.159 15.0773 213.797 14.416C213.434 13.7547 212.933 13.2427 212.293 12.88C211.653 12.496 210.906 12.304 210.053 12.304C209.199 12.304 208.442 12.496 207.781 12.88C207.141 13.2427 206.639 13.7653 206.277 14.448C205.914 15.1093 205.733 15.8987 205.733 16.816V17.584C205.733 18.5227 205.935 19.3547 206.341 20.08C206.767 20.784 207.354 21.328 208.101 21.712C208.869 22.0747 209.765 22.256 210.789 22.256C211.706 22.256 212.506 22.1173 213.189 21.84C213.893 21.5627 214.533 21.1467 215.109 20.592L217.765 23.472C216.975 24.368 215.983 25.0613 214.789 25.552C213.594 26.0213 212.218 26.256 210.661 26.256ZM232.768 8.528C234.133 8.528 235.349 8.80533 236.416 9.36C237.504 9.89333 238.357 10.7253 238.976 11.856C239.595 12.9653 239.904 14.3947 239.904 16.144V26H234.912V16.912C234.912 15.5253 234.603 14.5013 233.984 13.84C233.387 13.1787 232.533 12.848 231.424 12.848C230.635 12.848 229.92 13.0187 229.28 13.36C228.661 13.68 228.171 14.1813 227.808 14.864C227.467 15.5467 227.296 16.4213 227.296 17.488V26H222.304V8.784H227.072V13.552L226.176 12.112C226.795 10.96 227.68 10.0747 228.832 9.456C229.984 8.83733 231.296 8.528 232.768 8.528ZM251.469 26.256C249.442 26.256 247.864 25.744 246.733 24.72C245.602 23.6747 245.037 22.128 245.037 20.08V4.976H250.029V20.016C250.029 20.7413 250.221 21.3067 250.605 21.712C250.989 22.096 251.512 22.288 252.173 22.288C252.962 22.288 253.634 22.0747 254.189 21.648L255.533 25.168C255.021 25.5307 254.402 25.808 253.677 26C252.973 26.1707 252.237 26.256 251.469 26.256ZM242.381 13.008V9.168H254.317V13.008H242.381ZM264.127 26.256C262.655 26.256 261.237 26.0853 259.871 25.744C258.527 25.3813 257.461 24.9333 256.671 24.4L258.335 20.816C259.125 21.3067 260.053 21.712 261.119 22.032C262.207 22.3307 263.274 22.48 264.319 22.48C265.471 22.48 266.282 22.3413 266.751 22.064C267.242 21.7867 267.487 21.4027 267.487 20.912C267.487 20.5067 267.295 20.208 266.911 20.016C266.549 19.8027 266.058 19.6427 265.439 19.536C264.821 19.4293 264.138 19.3227 263.391 19.216C262.666 19.1093 261.93 18.9707 261.183 18.8C260.437 18.608 259.754 18.3307 259.135 17.968C258.517 17.6053 258.015 17.1147 257.631 16.496C257.269 15.8773 257.087 15.0773 257.087 14.096C257.087 13.008 257.397 12.048 258.015 11.216C258.655 10.384 259.573 9.73333 260.767 9.264C261.962 8.77333 263.391 8.528 265.055 8.528C266.229 8.528 267.423 8.656 268.639 8.912C269.855 9.168 270.869 9.54133 271.679 10.032L270.015 13.584C269.183 13.0933 268.341 12.7627 267.487 12.592C266.655 12.4 265.845 12.304 265.055 12.304C263.946 12.304 263.135 12.4533 262.623 12.752C262.111 13.0507 261.855 13.4347 261.855 13.904C261.855 14.3307 262.037 14.6507 262.399 14.864C262.783 15.0773 263.285 15.248 263.903 15.376C264.522 15.504 265.194 15.6213 265.919 15.728C266.666 15.8133 267.413 15.952 268.159 16.144C268.906 16.336 269.578 16.6133 270.175 16.976C270.794 17.3173 271.295 17.7973 271.679 18.416C272.063 19.0133 272.255 19.8027 272.255 20.784C272.255 21.8507 271.935 22.8 271.295 23.632C270.655 24.4427 269.727 25.0827 268.511 25.552C267.317 26.0213 265.855 26.256 264.127 26.256Z" fill="black"/>
</svg>
